<svg data-v-423bf9ae="" xmlns="http://www.w3.org/2000/svg" viewBox="0 0 399.2079134198574 60" class="font"><!----><!----><!----><g data-v-423bf9ae="" id="32a7bd1e-0000-4cbe-8442-f511bdf65cbc" fill="black" transform="matrix(4.243281654165035,0,0,4.243281654165035,-4.752480609455176,-31.782178618486014)"><path d="M4.49 19.18Q3.02 19.18 2.07 18.73Q1.12 18.27 1.12 17.43L1.12 17.43Q1.12 17.14 1.28 16.90Q1.44 16.66 1.71 16.52L1.71 16.52Q2.10 17.37 2.83 17.83Q3.57 18.28 4.42 18.28L4.42 18.28Q5.73 18.28 6.50 17.84Q7.28 17.39 7.28 16.53L7.28 16.53Q7.28 16.11 6.98 15.80Q6.68 15.48 6.22 15.26Q5.77 15.04 4.97 14.74L4.97 14.74Q3.95 14.35 3.31 14.02Q2.67 13.69 2.22 13.14Q1.76 12.59 1.76 11.76L1.76 11.76Q1.76 10.92 2.37 10.21Q2.97 9.51 4.08 9.09Q5.19 8.67 6.66 8.67L6.66 8.67Q7.88 8.67 8.69 9.02Q9.49 9.37 9.49 9.93L9.49 9.93Q9.49 10.49 9.13 10.77Q8.78 11.06 8.16 11.06L8.16 11.06Q6.94 11.06 6.54 9.55L6.54 9.55Q4.98 9.73 4.12 10.29Q3.26 10.85 3.26 11.61L3.26 11.61Q3.26 12.00 3.56 12.29Q3.85 12.57 4.28 12.78Q4.72 12.98 5.50 13.27L5.50 13.27Q6.55 13.68 7.20 14.01Q7.85 14.34 8.32 14.89Q8.78 15.44 8.78 16.25L8.78 16.25Q8.78 17.01 8.32 17.68Q7.85 18.35 6.90 18.77Q5.94 19.18 4.49 19.18L4.49 19.18ZM15.93 11.34Q16.49 11.34 16.49 11.84L16.49 11.84Q16.49 12.19 16.27 12.43L16.27 12.43Q15.88 12.32 15.06 12.32L15.06 12.32Q14.92 12.32 14.62 12.35L14.62 12.35Q14.07 14.15 13.78 15.50Q13.48 16.84 13.50 18.16L13.50 18.16L13.86 18.77Q13.65 18.97 13.39 19.08Q13.13 19.18 12.89 19.18L12.89 19.18Q12.54 19.18 12.33 18.96Q12.12 18.73 12.12 18.13L12.12 18.13Q12.12 17.44 12.30 16.61Q12.47 15.78 12.84 14.29L12.84 14.29Q13.15 13.12 13.27 12.56L13.27 12.56Q12.63 12.64 12.28 12.64L12.28 12.64Q11.70 12.64 11.70 12.15L11.70 12.15Q11.70 11.79 11.93 11.54L11.93 11.54Q12.32 11.65 13.19 11.65L13.19 11.65Q13.37 11.65 13.45 11.63L13.45 11.63Q13.55 10.99 13.55 10.64L13.55 10.64Q13.55 10.28 13.43 9.49L13.43 9.49Q13.59 9.30 13.92 9.18Q14.24 9.06 14.55 9.06L14.55 9.06Q14.90 9.06 15.06 9.23Q15.23 9.39 15.23 9.77L15.23 9.77Q15.23 10.23 14.90 11.44L14.90 11.44Q15.48 11.34 15.93 11.34L15.93 11.34ZM24.60 12.42Q24.60 13.86 23.11 14.67Q21.63 15.48 18.86 15.57L18.86 15.57L18.86 15.88Q18.86 17.04 19.30 17.70Q19.74 18.37 20.51 18.37L20.51 18.37Q21.46 18.37 22.07 17.78Q22.68 17.19 22.74 16.21L22.74 16.21Q23.73 16.21 23.73 16.97L23.73 16.97Q23.73 17.53 23.30 18.04Q22.86 18.55 22.10 18.87Q21.34 19.18 20.41 19.18L20.41 19.18Q18.98 19.18 18.19 18.28Q17.39 17.37 17.39 15.78L17.39 15.78Q17.39 14.27 18.03 13.04Q18.68 11.82 19.81 11.12Q20.94 10.43 22.34 10.43L22.34 10.43Q23.41 10.43 24.00 10.96Q24.60 11.48 24.60 12.42L24.60 12.42ZM22.16 11.12Q21.39 11.12 20.71 11.60Q20.03 12.08 19.57 12.94Q19.10 13.79 18.93 14.85L18.93 14.85Q21 14.84 22.16 14.17Q23.31 13.50 23.31 12.29L23.31 12.29Q23.31 11.76 23.00 11.44Q22.68 11.12 22.16 11.12L22.16 11.12ZM29.46 12.28Q30.38 12.11 30.83 11.96L30.83 11.96Q30.93 12.18 30.93 12.38L30.93 12.38Q30.93 12.80 30.52 13.00Q30.11 13.20 29.48 13.23L29.48 13.23Q28.91 15.37 28.53 17.54Q28.15 19.70 28.15 20.72L28.15 20.72Q28.15 21.15 28.42 21.32L28.42 21.32Q27.93 21.63 27.57 21.63L27.57 21.63Q27.20 21.63 27.01 21.38Q26.81 21.13 26.81 20.68L26.81 20.68Q26.81 19.99 27.10 18.43Q27.40 16.87 28.13 13.36L28.13 13.36Q27.31 13.48 26.80 13.65L26.80 13.65Q26.70 13.45 26.70 13.23L26.70 13.23Q26.70 12.80 27.15 12.59Q27.59 12.39 28.25 12.39L28.25 12.39Q28.14 11.05 28.14 10.22L28.14 10.22Q28.14 8.92 28.64 8.37Q29.15 7.81 29.93 7.81L29.93 7.81Q30.44 7.81 30.77 8.09Q31.09 8.36 31.09 8.76L31.09 8.76Q31.09 9.17 30.82 9.42Q30.55 9.66 30.11 9.66L30.11 9.66Q29.46 9.66 29.01 9.25L29.01 9.25L28.90 9.35L29.46 12.28ZM35.50 12.28Q36.43 12.11 36.88 11.96L36.88 11.96Q36.97 12.18 36.97 12.38L36.97 12.38Q36.97 12.80 36.57 13.00Q36.16 13.20 35.53 13.23L35.53 13.23Q34.96 15.37 34.58 17.54Q34.20 19.70 34.20 20.72L34.20 20.72Q34.20 21.15 34.47 21.32L34.47 21.32Q33.98 21.63 33.61 21.63L33.61 21.63Q33.25 21.63 33.05 21.38Q32.86 21.13 32.86 20.68L32.86 20.68Q32.86 19.99 33.15 18.43Q33.45 16.87 34.17 13.36L34.17 13.36Q33.36 13.48 32.84 13.65L32.84 13.65Q32.75 13.45 32.75 13.23L32.75 13.23Q32.75 12.80 33.19 12.59Q33.64 12.39 34.30 12.39L34.30 12.39Q34.19 11.05 34.19 10.22L34.19 10.22Q34.19 8.92 34.69 8.37Q35.20 7.81 35.98 7.81L35.98 7.81Q36.48 7.81 36.81 8.09Q37.14 8.36 37.14 8.76L37.14 8.76Q37.14 9.17 36.87 9.42Q36.60 9.66 36.16 9.66L36.16 9.66Q35.50 9.66 35.06 9.25L35.06 9.25L34.94 9.35L35.50 12.28ZM44.48 19.19Q44.07 19.19 43.87 19.01Q43.67 18.82 43.67 18.38L43.67 18.38Q43.67 17.54 43.88 15.81Q44.10 14.08 44.76 9.84L44.76 9.84L44.39 9.14Q44.79 8.89 45.13 8.78Q45.47 8.67 45.72 8.67L45.72 8.67Q46.44 8.67 46.80 9.08Q47.17 9.49 47.45 10.53Q47.74 11.56 48.34 14.34L48.34 14.34Q48.44 14.78 48.58 15.44Q48.72 16.10 48.92 17.00L48.92 17.00L49.07 17.00Q49.56 14.91 50.60 12.97Q51.63 11.03 52.87 9.84Q54.11 8.64 55.16 8.64L55.16 8.64Q55.27 8.64 55.37 8.75Q55.47 8.86 55.47 9.14L55.47 9.14Q55.47 9.37 55.10 11.65L55.10 11.65Q54.28 17.04 54.28 17.96L54.28 17.96Q54.28 18.56 54.60 18.93L54.60 18.93Q54.11 19.22 53.68 19.22L53.68 19.22Q53.28 19.22 53.09 19.03Q52.89 18.84 52.89 18.41L52.89 18.41Q52.89 17.54 53.09 15.88Q53.30 14.22 53.89 10.51L53.89 10.51L53.82 10.51Q52.82 11.31 52.02 12.69Q51.23 14.07 50.73 15.48Q50.23 16.88 50.08 17.82L50.08 17.82Q49.84 18.03 49.56 18.14Q49.28 18.26 49.01 18.26L49.01 18.26Q48.41 18.26 48.12 17.91Q47.82 17.57 47.53 16.49Q47.24 15.40 46.49 12.19L46.49 12.19Q46.48 12.12 46.10 10.51L46.10 10.51L46.03 10.51Q45.93 11.28 45.84 11.93Q45.74 12.57 45.67 13.05L45.67 13.05Q45.37 15.06 45.21 16.26Q45.05 17.46 45.05 17.93L45.05 17.93Q45.05 18.56 45.37 18.90L45.37 18.90Q44.93 19.19 44.48 19.19L44.48 19.19ZM64.81 12.42Q64.81 13.86 63.32 14.67Q61.84 15.48 59.07 15.57L59.07 15.57L59.07 15.88Q59.07 17.04 59.51 17.70Q59.95 18.37 60.72 18.37L60.72 18.37Q61.67 18.37 62.28 17.78Q62.89 17.19 62.94 16.21L62.94 16.21Q63.94 16.21 63.94 16.97L63.94 16.97Q63.94 17.53 63.50 18.04Q63.07 18.55 62.31 18.87Q61.54 19.18 60.62 19.18L60.62 19.18Q59.19 19.18 58.39 18.28Q57.60 17.37 57.60 15.78L57.60 15.78Q57.60 14.27 58.24 13.04Q58.88 11.82 60.02 11.12Q61.15 10.43 62.55 10.43L62.55 10.43Q63.62 10.43 64.21 10.96Q64.81 11.48 64.81 12.42L64.81 12.42ZM62.37 11.12Q61.60 11.12 60.92 11.60Q60.24 12.08 59.77 12.94Q59.30 13.79 59.14 14.85L59.14 14.85Q61.21 14.84 62.36 14.17Q63.52 13.50 63.52 12.29L63.52 12.29Q63.52 11.76 63.20 11.44Q62.89 11.12 62.37 11.12L62.37 11.12ZM71.39 11.34Q71.95 11.34 71.95 11.84L71.95 11.84Q71.95 12.19 71.72 12.43L71.72 12.43Q71.33 12.32 70.52 12.32L70.52 12.32Q70.38 12.32 70.07 12.35L70.07 12.35Q69.52 14.15 69.23 15.50Q68.94 16.84 68.95 18.16L68.95 18.16L69.31 18.77Q69.10 18.97 68.85 19.08Q68.59 19.18 68.35 19.18L68.35 19.18Q68.00 19.18 67.79 18.96Q67.58 18.73 67.58 18.13L67.58 18.13Q67.58 17.44 67.75 16.61Q67.93 15.78 68.29 14.29L68.29 14.29Q68.60 13.12 68.73 12.56L68.73 12.56Q68.08 12.64 67.73 12.64L67.73 12.64Q67.16 12.64 67.16 12.15L67.16 12.15Q67.16 11.79 67.38 11.54L67.38 11.54Q67.77 11.65 68.64 11.65L68.64 11.65Q68.82 11.65 68.91 11.63L68.91 11.63Q69.01 10.99 69.01 10.64L69.01 10.64Q69.01 10.28 68.88 9.49L68.88 9.49Q69.05 9.30 69.37 9.18Q69.69 9.06 70 9.06L70 9.06Q70.35 9.06 70.52 9.23Q70.69 9.39 70.69 9.77L70.69 9.77Q70.69 10.23 70.35 11.44L70.35 11.44Q70.94 11.34 71.39 11.34L71.39 11.34ZM75.32 9.13Q74.93 9.13 74.70 8.94Q74.47 8.75 74.47 8.43L74.47 8.43Q74.47 8.06 74.76 7.78Q75.05 7.49 75.56 7.49L75.56 7.49Q75.96 7.49 76.19 7.69Q76.41 7.88 76.41 8.19L76.41 8.19Q76.41 8.58 76.11 8.86Q75.81 9.13 75.32 9.13L75.32 9.13ZM73.98 19.18Q73.60 19.18 73.40 18.99Q73.21 18.80 73.21 18.37L73.21 18.37Q73.21 17.78 73.48 16.26Q73.75 14.74 74.48 11.48L74.48 11.48L73.91 10.91Q74.17 10.68 74.54 10.56Q74.90 10.43 75.19 10.43L75.19 10.43Q75.57 10.43 75.73 10.58Q75.89 10.74 75.89 11.13L75.89 11.13Q75.89 11.20 75.66 12.15L75.66 12.15Q75.19 14.01 74.88 15.60Q74.56 17.19 74.56 18.27L74.56 18.27Q74.56 18.70 74.76 18.87L74.76 18.87Q74.41 19.18 73.98 19.18L73.98 19.18ZM85.48 12.42Q85.48 13.86 84.00 14.67Q82.52 15.48 79.74 15.57L79.74 15.57L79.74 15.88Q79.74 17.04 80.19 17.70Q80.63 18.37 81.40 18.37L81.40 18.37Q82.35 18.37 82.96 17.78Q83.57 17.19 83.62 16.21L83.62 16.21Q84.62 16.21 84.62 16.97L84.62 16.97Q84.62 17.53 84.18 18.04Q83.75 18.55 82.99 18.87Q82.22 19.18 81.30 19.18L81.30 19.18Q79.87 19.18 79.07 18.28Q78.27 17.37 78.27 15.78L78.27 15.78Q78.27 14.27 78.92 13.04Q79.56 11.82 80.70 11.12Q81.83 10.43 83.23 10.43L83.23 10.43Q84.29 10.43 84.89 10.96Q85.48 11.48 85.48 12.42L85.48 12.42ZM83.05 11.12Q82.28 11.12 81.60 11.60Q80.92 12.08 80.45 12.94Q79.98 13.79 79.81 14.85L79.81 14.85Q81.89 14.84 83.04 14.17Q84.20 13.50 84.20 12.29L84.20 12.29Q84.20 11.76 83.88 11.44Q83.57 11.12 83.05 11.12L83.05 11.12ZM88.13 19.18Q87.35 19.18 87.35 18.37L87.35 18.37Q87.35 17.91 87.58 16.56Q87.82 15.20 88.34 12.53L88.34 12.53Q88.48 11.82 88.65 10.95Q88.82 10.08 89.00 9.07L89.00 9.07L88.42 8.47Q88.69 8.25 89.08 8.11Q89.46 7.98 89.78 7.98L89.78 7.98Q90.12 7.98 90.26 8.14Q90.40 8.30 90.40 8.69L90.40 8.69Q90.40 8.95 90.31 9.35Q90.23 9.74 90.03 10.56L90.03 10.56Q89.66 12.10 89.47 12.98L89.47 12.98L89.61 13.05Q90.37 11.68 91.38 11.05Q92.39 10.43 93.38 10.43L93.38 10.43Q94.30 10.43 94.75 10.89Q95.20 11.35 95.20 12.33L95.20 12.33Q95.20 12.91 95.07 13.53Q94.95 14.15 94.71 15.09L94.71 15.09Q94.43 16.25 94.30 16.92Q94.18 17.58 94.18 18.27L94.18 18.27Q94.18 18.68 94.33 18.86L94.33 18.86Q94.00 19.18 93.60 19.18L93.60 19.18Q93.20 19.18 93.02 18.98Q92.83 18.77 92.83 18.37L92.83 18.37Q92.83 17.84 92.95 17.19Q93.06 16.53 93.30 15.34L93.30 15.34Q93.51 14.35 93.62 13.72Q93.73 13.09 93.73 12.64L93.73 12.64Q93.73 11.37 92.78 11.37L92.78 11.37Q91.85 11.37 90.90 12.26Q89.95 13.16 89.33 14.74Q88.70 16.32 88.70 18.27L88.70 18.27Q88.70 18.70 88.84 18.86L88.84 18.86Q88.52 19.18 88.13 19.18L88.13 19.18Z"></path></g><!----><!----></svg>